<svg xmlns="http://www.w3.org/2000/svg" width="16" height="16" viewBox="0 0 16 16">
  <g fill="none" fill-rule="evenodd">
    <path fill="#008077" fill-rule="nonzero" d="M7.067 7.715V16h-5.52c-.427 0-.774-.26-.774-.58V7.715h6.294zm8.16 0v7.705c0 .32-.347.58-.775.58H8.933V7.715h6.294zm-8.16-3.662V7.02H.774C.346 7.02 0 6.76 0 6.441v-1.81c0-.319.346-.578.774-.578h6.293zm8.16 0c.427 0 .773.26.773.579v1.81c0 .319-.346.578-.774.578H8.933V4.053h6.293zM13.93.421c.379.243.542.62.423.978-.193.598-1.082 1.125-2.38 1.409a20.68 20.68 0 01-3.379.382l-.571.01H7.96a20.74 20.74 0 01-3.95-.392c-1.298-.284-2.188-.81-2.38-1.409-.12-.358.044-.735.423-.978.999-.686 3.092-.513 4.479.37.577.375 1.07.815 1.46 1.303.389-.488.882-.928 1.46-1.304C10.837-.092 12.93-.265 13.93.421zM2.698.925c-.132.074-.19.198-.15.316.09.282.661.67 1.732.905.958.194 1.942.31 2.935.345a5.35 5.35 0 00-1.302-1.18C4.809.61 3.278.527 2.698.925zm9.735-.239h-.186c-.803.016-1.574.237-2.177.625-.519.34-.959.737-1.303 1.18a18.164 18.164 0 002.936-.345c1.07-.234 1.642-.623 1.732-.905.04-.118-.018-.242-.15-.316a1.825 1.825 0 00-.668-.222l-.184-.017z"/>
  </g>
</svg>
